<svg xmlns="http://www.w3.org/2000/svg" width="20" height="20" viewBox="0 0 20 20">
  <defs>
    <style>
      .cls-1 {
        fill: #f66;
        fill-rule: evenodd;
      }
    </style>
  </defs>
  <path id="х_copy" data-name="х copy" class="cls-1" d="M1167.18,166c1.37,1.288,2.75,2.576,4.12,3.863,0.67,0.658.87,1.431,2.07,1.591,0.71-1.251,2.61-2.595,3.66-3.636,0.6-.591.88-1.34,1.84-1.591q1.485,1.592,2.98,3.182a2.641,2.641,0,0,1,1.14,1.364c-1.83,1.742-3.67,3.485-5.5,5.227v0.227h0.23q1.83,1.932,3.67,3.864c0.6,0.593,1.34.872,1.6,1.818l-3.21,2.954a2.643,2.643,0,0,1-1.37,1.137q-2.64-2.727-5.27-5.455h-0.23v0.228q-1.95,1.817-3.9,3.636c-0.6.593-.88,1.333-1.83,1.591-0.99-1.061-1.99-2.121-2.98-3.182a2.658,2.658,0,0,1-1.15-1.364,13.377,13.377,0,0,0,2.52-2.5c0.96-.947,2.29-1.771,2.98-2.954a6.61,6.61,0,0,1-1.37-1.364c-1-.985-1.99-1.966-2.98-2.954-0.31-.3-1.47-0.764-1.15-1.591,0.39-.3.77-0.606,1.15-0.909C1165.19,168.121,1166.19,167.06,1167.18,166Z" transform="translate(-1163 -166)"/>
</svg>
