<svg xmlns="http://www.w3.org/2000/svg" width="22" height="18" viewBox="0 0 22 18">
  <defs>
    <style>
      .cls-1 {
        fill: #f90;
        fill-rule: evenodd;
      }
    </style>
  </defs>
  <path id="Корона" class="cls-1" d="M540,728.168a1.99,1.99,0,0,1-2.009,1.97,2.132,2.132,0,0,1-.36-0.033l-2.806,5.466v2.572H523.176l0.138-2.346-2.93-5.694a2.089,2.089,0,0,1-.374.035,1.97,1.97,0,1,1,2.009-1.97,1.927,1.927,0,0,1-.154.756c2.008,0.664,5.108,1.205,6.5-1.084a2.01,2.01,0,1,1,1.266,0c0.814,1.475,2.628,3.015,6.584,1.259a1.936,1.936,0,0,1-.238-0.93A2.01,2.01,0,0,1,540,728.168ZM523.176,742h11.647v-2.571H523.176V742Z" transform="translate(-518 -724)"/>
</svg>
