<svg xmlns="http://www.w3.org/2000/svg" width="25" height="27.031" viewBox="0 0 25 27.031">
  <defs>
    <style>
      .cls-1 {
        fill: #666;
        fill-rule: evenodd;
      }
    </style>
  </defs>
  <path id="Не_з_явився_copy" data-name="Не з’явився copy" class="cls-1" d="M237.459,312.9h0.065c5.615-.061,4.8-7.766,4.8-7.766-0.232-5.15-4.421-5.106-4.83-5.089-0.414-.017-4.6-0.061-4.83,5.089C232.662,305.127,231.844,312.838,237.459,312.9Zm7.858,2.308a3.769,3.769,0,0,0-4.189-1.877l-1.958,6.361-0.269.863L238.024,318c2.012-2.888-.15-3.026-0.527-3.032h-0.021c-0.377.006-2.539,0.139-.527,3.032l-0.877,2.555-0.269-.863-1.958-6.361a23.014,23.014,0,0,1-4.061,2.019c-2.8,1.046-2.742,3-2.8,7.439h13.33C240.231,320.549,239.5,316.89,245.317,315.207Zm5.074,2.419a5.367,5.367,0,0,0-7.656,0,5.535,5.535,0,0,0,0,7.754,5.366,5.366,0,0,0,7.656,0A5.522,5.522,0,0,0,250.391,317.626Zm-1.439,5.244-1.04,1.053-1.349-1.367-1.349,1.367-1.04-1.053,1.349-1.367-1.349-1.366,1.04-1.053,1.349,1.366,1.349-1.366,1.04,1.053L247.6,321.5Z" transform="translate(-227 -299.969)"/>
</svg>
