<svg xmlns="http://www.w3.org/2000/svg" width="23" height="23" viewBox="0 0 23 23">
  <defs>
    <style>
      .cls-1 {
        fill: #393;
        fill-rule: evenodd;
      }
    </style>
  </defs>
  <path id="доллар_copy" data-name="доллар copy" class="cls-1" d="M148.5,301A11.5,11.5,0,1,0,160,312.5,11.5,11.5,0,0,0,148.5,301Zm3.136,15.94a3.651,3.651,0,0,1-2.451,1.12v1.627h-1.362v-1.618a3.569,3.569,0,0,1-3.309-3.105l2.106-.549a1.83,1.83,0,0,0,1.937,1.778,1.5,1.5,0,0,0,1.133-.38,1.284,1.284,0,0,0,.362-0.92,1.011,1.011,0,0,0-.362-0.845,6.557,6.557,0,0,0-1.611-.73,9.447,9.447,0,0,1-1.755-.77,2.894,2.894,0,0,1-1.026-1.065,3.15,3.15,0,0,1-.4-1.6,3.544,3.544,0,0,1,.705-2.151,3.145,3.145,0,0,1,2.215-1.166v-1.257h1.362v1.257a3.293,3.293,0,0,1,2.955,2.583l-1.876.769a1.888,1.888,0,0,0-1.7-1.583,1.239,1.239,0,0,0-.925.353,1.178,1.178,0,0,0-.35.858,0.962,0.962,0,0,0,.337.789,5.783,5.783,0,0,0,1.441.68,12.782,12.782,0,0,1,1.9.836,2.994,2.994,0,0,1,1.1,1.088,3.127,3.127,0,0,1,.411,1.623A3.432,3.432,0,0,1,151.636,316.94Z" transform="translate(-137 -301)"/>
</svg>
