<svg xmlns="http://www.w3.org/2000/svg" width="18" height="11" viewBox="0 0 18 11">
  <defs>
    <style>
      .cls-1 {
        fill: #005f84;
        fill-rule: evenodd;
      }
    </style>
  </defs>
  <path id="око" class="cls-1" d="M641,62a10.1,10.1,0,0,0-9,5.5,10.114,10.114,0,0,0,18,0A10.1,10.1,0,0,0,641,62Zm4.437,2.917a8.459,8.459,0,0,1,2.627,2.583,8.459,8.459,0,0,1-2.627,2.583,8.406,8.406,0,0,1-8.875,0,8.479,8.479,0,0,1-2.627-2.583,8.479,8.479,0,0,1,2.627-2.583c0.069-.043.139-0.085,0.209-0.126A4.3,4.3,0,0,0,636.5,66.3a4.5,4.5,0,0,0,9,0,4.3,4.3,0,0,0-.271-1.506C645.3,64.832,645.368,64.874,645.437,64.917Zm-4.437.83a1.688,1.688,0,1,1-1.688-1.65A1.669,1.669,0,0,1,641,65.747Z" transform="translate(-632 -62)"/>
</svg>
