<svg xmlns="http://www.w3.org/2000/svg" width="20" height="18" viewBox="0 0 20 18">
  <defs>
    <style>
      .cls-1 {
        fill: #f99;
        fill-rule: evenodd;
      }
    </style>
  </defs>
  <path id="серце" class="cls-1" d="M258.97,215.366A5.583,5.583,0,0,0,253.555,210a5.417,5.417,0,0,0-4.611,2.572,5.218,5.218,0,0,0-4.5-2.572,5.581,5.581,0,0,0-5.414,5.368,5.364,5.364,0,0,0,.17,2.041,8.708,8.708,0,0,0,2.77,4.474l6.97,6.122,7.09-6.122a8.708,8.708,0,0,0,2.77-4.474A5.4,5.4,0,0,0,258.97,215.366Z" transform="translate(-239 -210)"/>
</svg>
