<svg xmlns="http://www.w3.org/2000/svg" width="25.969" height="26" viewBox="0 0 25.969 26">
  <defs>
    <style>
      .cls-1 {
        fill: #630;
        fill-rule: evenodd;
      }
    </style>
  </defs>
  <path id="готуэться_copy" data-name="готуэться copy" class="cls-1" d="M45.912,304.838a0.483,0.483,0,0,0,.275.086h0a0.5,0.5,0,0,0,.491-0.5,0.516,0.516,0,0,0-.02-0.141,3.638,3.638,0,0,1,.4-3.032,4.1,4.1,0,0,0,.763-3.015,3.178,3.178,0,0,0-1.358-2.149,0.489,0.489,0,0,0-.553,0,0.506,0.506,0,0,0-.2.528,4.351,4.351,0,0,1-.668,3.458,4.179,4.179,0,0,0-.5,2.523A3.166,3.166,0,0,0,45.912,304.838Zm4.024-.215a0.456,0.456,0,0,0,.26.082h0a0.473,0.473,0,0,0,.444-0.6,2.767,2.767,0,0,1,.3-2.3,3.282,3.282,0,0,0,.61-2.416,2.566,2.566,0,0,0-1.094-1.732,0.458,0.458,0,0,0-.521,0,0.481,0.481,0,0,0-.186.5,3.328,3.328,0,0,1-.514,2.643,3.34,3.34,0,0,0-.4,2.02A2.549,2.549,0,0,0,49.936,304.623Zm12.646,3.044a1.57,1.57,0,0,0-1.231-.572H59.088a1.806,1.806,0,0,0-.325-1.226,1.055,1.055,0,0,0-.843-0.377H38.3a1.2,1.2,0,0,0-.967.416,1.812,1.812,0,0,0-.3,1.387,20.86,20.86,0,0,0,3.288,8.7,10.113,10.113,0,0,0,4.094,3.488H38.948a1.261,1.261,0,0,0,0,2.521h18.2a1.261,1.261,0,0,0,0-2.521H51.714a9.565,9.565,0,0,0,3.445-2.65,8.332,8.332,0,0,0,4.971-2.432,9.448,9.448,0,0,0,2.844-5.12A2.088,2.088,0,0,0,62.582,307.667Zm-5.412,5.985a21.819,21.819,0,0,0,1.447-4.13h1.868A7.762,7.762,0,0,1,57.17,313.652Z" transform="translate(-37.031 -296)"/>
</svg>
