<svg xmlns="http://www.w3.org/2000/svg" width="20" height="20" viewBox="0 0 20 20">
  <defs>
    <style>
      .cls-1 {
        fill: #f66;
        fill-rule: evenodd;
      }
    </style>
  </defs>
  <path id="х_copy_2" data-name="х copy 2" class="cls-1" d="M187.178,302l4.125,3.863c0.664,0.658.864,1.431,2.063,1.591,0.717-1.251,2.617-2.6,3.667-3.636,0.6-.591.88-1.34,1.833-1.591l2.979,3.182a2.647,2.647,0,0,1,1.146,1.364l-5.5,5.227v0.227h0.229l3.667,3.864c0.6,0.593,1.345.872,1.6,1.818l-3.208,2.954A2.659,2.659,0,0,1,198.408,322l-5.271-5.455h-0.229v0.228l-3.9,3.636c-0.6.593-.88,1.333-1.834,1.591l-2.979-3.182a2.647,2.647,0,0,1-1.146-1.364,13.623,13.623,0,0,0,2.521-2.5c0.955-.947,2.289-1.771,2.979-2.954a6.659,6.659,0,0,1-1.375-1.364c-0.994-.985-1.987-1.966-2.979-2.954-0.306-.305-1.468-0.764-1.146-1.591l1.146-.909Z" transform="translate(-183 -302)"/>
</svg>
